<svg width="76" height="17" viewBox="0 0 76 17" fill="none" xmlns="http://www.w3.org/2000/svg">
<path d="M8.33069 10.1397H3.59729L2.46057 13.4961H0.455688L4.93909 1.07812H7.02209L11.5055 13.4961H9.46642L8.33069 10.1397ZM4.08752 8.59085H7.83952L5.98991 3.14358H5.93815L4.08752 8.59085Z" fill="white"/>
<path d="M21.1881 8.9697C21.1881 11.7832 19.6823 13.5908 17.4098 13.5908C16.8341 13.6209 16.2616 13.4883 15.7578 13.2082C15.254 12.928 14.8393 12.5117 14.5612 12.0068H14.5182V16.4912H12.6598V4.44235H14.4586V5.94821H14.4928C14.7838 5.44574 15.2055 5.03155 15.7131 4.7497C16.2207 4.46786 16.7953 4.3289 17.3756 4.34762C19.6734 4.34763 21.1881 6.16403 21.1881 8.9697ZM19.278 8.9697C19.278 7.1367 18.3307 5.93161 16.8854 5.93161C15.4654 5.93161 14.5104 7.16208 14.5104 8.9697C14.5104 10.7939 15.4654 12.0156 16.8854 12.0156C18.3307 12.0156 19.278 10.8193 19.278 8.9697Z" fill="white"/>
<path d="M31.153 8.96969C31.153 11.7832 29.6471 13.5908 27.3746 13.5908C26.799 13.6209 26.2265 13.4883 25.7227 13.2081C25.2189 12.928 24.8042 12.5117 24.526 12.0068H24.483V16.4912H22.6246V4.44234H24.4234V5.9482H24.4576C24.7486 5.44573 25.1703 5.03154 25.6779 4.7497C26.1856 4.46786 26.7601 4.3289 27.3404 4.34762C29.6383 4.34762 31.153 6.16402 31.153 8.96969ZM29.2428 8.96969C29.2428 7.13669 28.2955 5.9316 26.8502 5.9316C25.4303 5.9316 24.4752 7.16207 24.4752 8.96969C24.4752 10.7939 25.4303 12.0156 26.8502 12.0156C28.2955 12.0156 29.2428 10.8193 29.2428 8.96969H29.2428Z" fill="white"/>
<path d="M37.7389 10.0362C37.8766 11.2676 39.0729 12.0762 40.7076 12.0762C42.2741 12.0762 43.401 11.2676 43.401 10.1572C43.401 9.19336 42.7213 8.61623 41.1119 8.22071L39.5026 7.83301C37.2223 7.28223 36.1637 6.21582 36.1637 4.48535C36.1637 2.34277 38.0309 0.871094 40.6823 0.871094C43.3063 0.871094 45.1051 2.34277 45.1656 4.48535H43.2896C43.1774 3.24609 42.1529 2.49805 40.6559 2.49805C39.1588 2.49805 38.1344 3.25489 38.1344 4.35645C38.1344 5.23438 38.7887 5.75098 40.3893 6.14645L41.7574 6.48239C44.3053 7.08493 45.3639 8.10839 45.3639 9.92477C45.3639 12.248 43.5133 13.7031 40.5699 13.7031C37.816 13.7031 35.9566 12.2822 35.8365 10.0361L37.7389 10.0362Z" fill="white"/>
<path d="M49.3746 2.2998V4.44238H51.0963V5.91406H49.3746V10.9053C49.3746 11.6807 49.7194 12.042 50.4762 12.042C50.6806 12.0384 50.8846 12.0241 51.0875 11.999V13.4619C50.7472 13.5255 50.4014 13.5543 50.0553 13.5478C48.2223 13.5478 47.5074 12.8593 47.5074 11.1035V5.91406H46.191V4.44238H47.5074V2.2998H49.3746Z" fill="white"/>
<path d="M52.0934 8.96972C52.0934 6.12109 53.7711 4.33105 56.3874 4.33105C59.0124 4.33105 60.6823 6.12105 60.6823 8.96972C60.6823 11.8262 59.0211 13.6084 56.3874 13.6084C53.7545 13.6084 52.0934 11.8262 52.0934 8.96972ZM58.7887 8.96972C58.7887 7.01562 57.8932 5.8623 56.3874 5.8623C54.8815 5.8623 53.987 7.02441 53.987 8.96972C53.987 10.9316 54.8815 12.0762 56.3874 12.0762C57.8932 12.0762 58.7887 10.9316 58.7887 8.96972H58.7887Z" fill="white"/>
<path d="M62.2145 4.44251H63.9869V5.98351H64.0299C64.1499 5.50222 64.4318 5.07689 64.8284 4.779C65.225 4.48112 65.712 4.32884 66.2077 4.34776C66.4218 4.34702 66.6354 4.37028 66.8444 4.41711V6.15539C66.574 6.07277 66.292 6.03484 66.0094 6.04308C65.7394 6.03213 65.4703 6.07973 65.2204 6.18262C64.9706 6.28551 64.746 6.44124 64.562 6.63913C64.378 6.83702 64.239 7.07238 64.1546 7.32905C64.0702 7.58572 64.0423 7.85762 64.0729 8.12609V13.4962H62.2145L62.2145 4.44251Z" fill="white"/>
<path d="M75.4127 10.8369C75.1627 12.4805 73.5621 13.6084 71.5143 13.6084C68.8805 13.6084 67.2457 11.8437 67.2457 9.01269C67.2457 6.17285 68.8893 4.33105 71.4362 4.33105C73.941 4.33105 75.5162 6.05175 75.5162 8.79687V9.43359H69.1217V9.54589C69.0922 9.8791 69.1339 10.2148 69.2441 10.5306C69.3543 10.8464 69.5304 11.1352 69.7607 11.3778C69.9911 11.6203 70.2704 11.8111 70.5802 11.9374C70.8899 12.0637 71.223 12.1226 71.5573 12.1103C71.9964 12.1515 72.4371 12.0498 72.8138 11.8203C73.1906 11.5909 73.4831 11.246 73.6481 10.8369L75.4127 10.8369ZM69.1305 8.13476H73.6569C73.6735 7.83517 73.6281 7.53536 73.5234 7.25415C73.4188 6.97294 73.2571 6.7164 73.0486 6.50064C72.84 6.28487 72.5892 6.11453 72.3117 6.00032C72.0342 5.8861 71.7361 5.83047 71.4362 5.83691C71.1335 5.83511 70.8335 5.89325 70.5535 6.008C70.2734 6.12274 70.0189 6.2918 69.8045 6.50544C69.5902 6.71907 69.4203 6.97304 69.3046 7.25269C69.1889 7.53234 69.1297 7.83214 69.1305 8.13477V8.13476Z" fill="white"/>
</svg>
