<svg width="70" height="7" viewBox="0 0 70 7" fill="none" xmlns="http://www.w3.org/2000/svg">
<path d="M2.85461 0.730892C3.24422 0.702933 3.63519 0.761793 3.9993 0.903226C4.36341 1.04466 4.6916 1.26514 4.96018 1.54876C5.22877 1.83239 5.43106 2.17209 5.55246 2.54336C5.67386 2.91463 5.71135 3.30822 5.66223 3.69573C5.66223 5.60198 4.63196 6.69773 2.85461 6.69773H0.699341V0.730892H2.85461ZM1.62609 5.85389H2.75109C3.0295 5.87053 3.30811 5.82489 3.56665 5.72027C3.82519 5.61566 4.05715 5.45471 4.24564 5.24914C4.43413 5.04358 4.57441 4.79857 4.65628 4.53195C4.73814 4.26533 4.75952 3.98382 4.71886 3.70789C4.75657 3.43306 4.73302 3.15329 4.6499 2.88862C4.56678 2.62396 4.42615 2.38096 4.23809 2.17703C4.05003 1.9731 3.81918 1.81329 3.5621 1.70905C3.30502 1.60481 3.02807 1.55873 2.75109 1.5741H1.62609V5.85389Z" fill="white"/>
<path d="M6.70911 4.44429C6.6808 4.14837 6.71466 3.8498 6.8085 3.56773C6.90234 3.28566 7.05409 3.02632 7.25403 2.80634C7.45398 2.58636 7.69769 2.41059 7.96954 2.29032C8.24139 2.17004 8.53538 2.10791 8.83265 2.10791C9.12992 2.10791 9.42391 2.17004 9.69576 2.29032C9.96761 2.41059 10.2113 2.58636 10.4113 2.80634C10.6112 3.02632 10.763 3.28566 10.8568 3.56773C10.9506 3.8498 10.9845 4.14837 10.9562 4.44429C10.985 4.74051 10.9516 5.03949 10.858 5.32202C10.7644 5.60454 10.6127 5.86436 10.4127 6.08477C10.2127 6.30519 9.96885 6.48132 9.69672 6.60186C9.4246 6.72239 9.13027 6.78466 8.83265 6.78466C8.53502 6.78466 8.24069 6.72239 7.96857 6.60186C7.69644 6.48132 7.45255 6.30519 7.25256 6.08477C7.05256 5.86436 6.9009 5.60454 6.80731 5.32202C6.71371 5.03949 6.68026 4.74051 6.70911 4.44429ZM10.0421 4.44429C10.0421 3.46822 9.60363 2.89742 8.83411 2.89742C8.06165 2.89742 7.62711 3.46822 7.62711 4.4443C7.62711 5.42819 8.06168 5.99459 8.83411 5.99459C9.60365 5.99458 10.0421 5.42427 10.0421 4.44429H10.0421Z" fill="white"/>
<path d="M16.6017 6.69775H15.6798L14.7491 3.38134H14.6788L13.7521 6.69775H12.839L11.5978 2.19482H12.4991L13.3058 5.63082H13.3722L14.298 2.19482H15.1505L16.0763 5.63082H16.1466L16.9493 2.19482H17.838L16.6017 6.69775Z" fill="white"/>
<path d="M18.882 2.19487H19.7374V2.9102H19.8038C19.9165 2.65328 20.1065 2.43791 20.3474 2.2941C20.5882 2.15029 20.868 2.08522 21.1476 2.10795C21.3667 2.09148 21.5867 2.12451 21.7913 2.20461C21.9959 2.2847 22.1798 2.40981 22.3295 2.57065C22.4792 2.73149 22.5908 2.92396 22.656 3.13378C22.7212 3.3436 22.7383 3.5654 22.7062 3.78275V6.69775H21.8175V4.00591C21.8175 3.28228 21.5031 2.92241 20.8458 2.92241C20.6971 2.91548 20.5486 2.9408 20.4105 2.99663C20.2725 3.05246 20.1481 3.13748 20.046 3.24587C19.9439 3.35425 19.8664 3.48344 19.8188 3.62457C19.7713 3.7657 19.7549 3.91544 19.7706 4.06352V6.6978H18.882L18.882 2.19487Z" fill="white"/>
<path d="M24.1222 0.437012H25.0109V6.69775H24.1222V0.437012Z" fill="white"/>
<path d="M26.2462 4.44437C26.2179 4.14843 26.2518 3.84985 26.3456 3.56777C26.4395 3.28569 26.5913 3.02634 26.7913 2.80635C26.9912 2.58636 27.2349 2.4106 27.5068 2.29032C27.7787 2.17004 28.0727 2.10791 28.37 2.10791C28.6673 2.10791 28.9613 2.17004 29.2331 2.29032C29.505 2.4106 29.7487 2.58636 29.9487 2.80635C30.1487 3.02634 30.3004 3.28569 30.3943 3.56777C30.4882 3.84985 30.522 4.14843 30.4938 4.44437C30.5226 4.74061 30.4891 5.03959 30.3955 5.32211C30.3018 5.60464 30.1501 5.86445 29.9501 6.08486C29.7501 6.30527 29.5062 6.48139 29.2341 6.60192C28.9619 6.72245 28.6676 6.78472 28.37 6.78472C28.0723 6.78472 27.778 6.72245 27.5059 6.60192C27.2337 6.48139 26.9898 6.30527 26.7898 6.08486C26.5898 5.86445 26.4381 5.60464 26.3445 5.32211C26.2509 5.03959 26.2174 4.74061 26.2462 4.44437ZM29.5792 4.44437C29.5792 3.4683 29.1407 2.8975 28.3712 2.8975C27.5987 2.8975 27.1642 3.4683 27.1642 4.44438C27.1642 5.42827 27.5988 5.99467 28.3712 5.99467C29.1407 5.99466 29.5792 5.42435 29.5792 4.44437H29.5792Z" fill="white"/>
<path d="M31.4293 5.42431C31.4293 4.61376 32.0328 4.14648 33.1041 4.08007L34.3239 4.00976V3.62109C34.3239 3.1455 34.0094 2.87695 33.402 2.87695C32.9059 2.87695 32.5621 3.05908 32.4635 3.37744H31.6031C31.694 2.604 32.4215 2.10791 33.443 2.10791C34.5719 2.10791 35.2086 2.66991 35.2086 3.62109V6.69775H34.3531V6.06494H34.2828C34.1401 6.29193 33.9397 6.47698 33.7021 6.60119C33.4645 6.7254 33.1981 6.78432 32.9303 6.77194C32.7413 6.7916 32.5502 6.77144 32.3694 6.71274C32.1887 6.65404 32.0222 6.55811 31.8808 6.43114C31.7394 6.30417 31.6262 6.14898 31.5484 5.97556C31.4706 5.80215 31.4301 5.61436 31.4293 5.42431ZM34.3239 5.03954V4.66308L33.2242 4.73339C32.6041 4.77489 32.3229 4.98583 32.3229 5.3828C32.3229 5.78807 32.6744 6.02391 33.1579 6.02391C33.2995 6.03825 33.4426 6.02395 33.5786 5.98186C33.7146 5.93977 33.8408 5.87075 33.9495 5.77891C34.0583 5.68706 34.1475 5.57428 34.2118 5.44726C34.2761 5.32024 34.3142 5.18158 34.3239 5.03954Z" fill="white"/>
<path d="M36.3766 4.44435C36.3766 3.0215 37.108 2.12013 38.2457 2.12013C38.5271 2.10716 38.8064 2.17457 39.051 2.31446C39.2955 2.45436 39.4951 2.66096 39.6266 2.91013H39.693V0.437012H40.5817V6.69775H39.7301V5.98632H39.6598C39.5182 6.23381 39.3116 6.43785 39.0623 6.57633C38.8131 6.71481 38.5307 6.78246 38.2457 6.77196C37.1002 6.77201 36.3766 5.87062 36.3766 4.44435ZM37.2946 4.44435C37.2946 5.39943 37.7448 5.97414 38.4977 5.97414C39.2467 5.97414 39.7096 5.39114 39.7096 4.44826C39.7096 3.50978 39.2419 2.91847 38.4977 2.91847C37.7496 2.91847 37.2946 3.49708 37.2946 4.44435H37.2946Z" fill="white"/>
<path d="M44.2584 4.44429C44.2301 4.14837 44.264 3.8498 44.3578 3.56773C44.4516 3.28566 44.6034 3.02632 44.8034 2.80634C45.0033 2.58636 45.247 2.41059 45.5188 2.29032C45.7907 2.17004 46.0847 2.10791 46.382 2.10791C46.6792 2.10791 46.9732 2.17004 47.2451 2.29032C47.5169 2.41059 47.7606 2.58636 47.9606 2.80634C48.1605 3.02632 48.3123 3.28566 48.4061 3.56773C48.5 3.8498 48.5338 4.14837 48.5055 4.44429C48.5343 4.74051 48.5009 5.03949 48.4073 5.32202C48.3137 5.60454 48.162 5.86436 47.962 6.08477C47.7621 6.30519 47.5182 6.48132 47.246 6.60186C46.9739 6.72239 46.6796 6.78466 46.382 6.78466C46.0843 6.78466 45.79 6.72239 45.5179 6.60186C45.2458 6.48132 45.0019 6.30519 44.8019 6.08477C44.6019 5.86436 44.4502 5.60454 44.3566 5.32202C44.263 5.03949 44.2296 4.74051 44.2584 4.44429ZM47.5914 4.44429C47.5914 3.46822 47.1529 2.89742 46.3834 2.89742C45.611 2.89742 45.1764 3.46822 45.1764 4.4443C45.1764 5.42819 45.611 5.99459 46.3834 5.99459C47.153 5.99458 47.5914 5.42427 47.5914 4.44429Z" fill="white"/>
<path d="M49.6979 2.19487H50.5533V2.9102H50.6198C50.7324 2.65328 50.9224 2.43791 51.1633 2.2941C51.4042 2.15029 51.6839 2.08522 51.9635 2.10795C52.1826 2.09148 52.4026 2.12451 52.6072 2.20461C52.8118 2.2847 52.9958 2.40981 53.1454 2.57065C53.2951 2.73149 53.4067 2.92396 53.4719 3.13378C53.5371 3.3436 53.5543 3.5654 53.5221 3.78275V6.69775H52.6334V4.00591C52.6334 3.28228 52.319 2.92241 51.6618 2.92241C51.513 2.91548 51.3645 2.9408 51.2264 2.99663C51.0884 3.05246 50.964 3.13748 50.8619 3.24587C50.7598 3.35425 50.6823 3.48344 50.6348 3.62457C50.5872 3.7657 50.5708 3.91544 50.5865 4.06352V6.6978H49.6979V2.19487Z" fill="white"/>
<path d="M58.5436 1.07373V2.21533H59.5192V2.96387H58.5436V5.2793C58.5436 5.75098 58.7379 5.95752 59.1803 5.95752C59.2936 5.95716 59.4067 5.95031 59.5192 5.93701V6.67724C59.3596 6.70579 59.1979 6.72098 59.0358 6.72265C58.0475 6.72265 57.6539 6.37499 57.6539 5.50683V2.96383H56.9391V2.21529H57.6539V1.07373H58.5436Z" fill="white"/>
<path d="M60.733 0.437012H61.6139V2.91846H61.6842C61.8023 2.65914 61.9976 2.44255 62.2432 2.2982C62.4889 2.15386 62.7732 2.08877 63.0572 2.11182C63.2752 2.09996 63.493 2.13635 63.6953 2.21839C63.8976 2.30043 64.0793 2.42611 64.2274 2.58644C64.3755 2.74678 64.4864 2.93783 64.5522 3.14597C64.618 3.3541 64.637 3.57419 64.608 3.79053V6.69776H63.7184V4.00976C63.7184 3.29052 63.3834 2.92626 62.7555 2.92626C62.6028 2.91374 62.4492 2.93473 62.3054 2.98779C62.1616 3.04084 62.0312 3.12467 61.9232 3.23341C61.8152 3.34214 61.7322 3.47316 61.6802 3.6173C61.6281 3.76144 61.6082 3.91521 61.6217 4.06786V6.69774H60.7331L60.733 0.437012Z" fill="white"/>
<path d="M69.7897 5.48201C69.6689 5.89355 69.4073 6.24953 69.0507 6.48768C68.694 6.72583 68.2649 6.83098 67.8385 6.78474C67.5418 6.79257 67.247 6.73575 66.9745 6.61822C66.702 6.50069 66.4584 6.32527 66.2605 6.10413C66.0625 5.88299 65.9151 5.62144 65.8284 5.33761C65.7417 5.05379 65.7179 4.75451 65.7584 4.46053C65.7189 4.16564 65.7432 3.86571 65.8297 3.58104C65.9162 3.29636 66.0629 3.0336 66.2597 2.81052C66.4566 2.58745 66.6991 2.40928 66.9708 2.28807C67.2425 2.16686 67.5371 2.10545 67.8346 2.10799C69.0875 2.10799 69.8434 2.96399 69.8434 4.37799V4.68808H66.6637V4.73788C66.6498 4.90312 66.6706 5.06945 66.7247 5.2262C66.7788 5.38295 66.8651 5.52666 66.978 5.64812C67.0909 5.76957 67.2279 5.86609 67.3803 5.93149C67.5327 5.99689 67.6971 6.02972 67.8629 6.02788C68.0755 6.05339 68.2909 6.01512 68.4816 5.91791C68.6724 5.8207 68.8299 5.66896 68.9342 5.48198L69.7897 5.48201ZM66.6637 4.03084H68.9381C68.9493 3.87971 68.9287 3.72791 68.8778 3.58519C68.8268 3.44247 68.7466 3.31199 68.6422 3.20213C68.5378 3.09228 68.4116 3.00547 68.2717 2.9473C68.1317 2.88912 67.9812 2.86086 67.8297 2.86434C67.676 2.8624 67.5235 2.89126 67.3811 2.94921C67.2387 3.00715 67.1094 3.09301 67.0007 3.20172C66.8921 3.31044 66.8063 3.4398 66.7484 3.5822C66.6905 3.7246 66.6617 3.87714 66.6637 4.03084H66.6637Z" fill="white"/>
</svg>
