<svg width="135" height="33" viewBox="0 0 135 33" fill="none" xmlns="http://www.w3.org/2000/svg">
<path d="M19.36 3.8V10.04H8.08V15H16.4V20.96H8.08V32H0.24V3.8H19.36ZM72.2413 20.76C72.2413 18.44 72.6546 16.4133 73.4813 14.68C74.3346 12.9467 75.4946 11.6133 76.9613 10.68C78.4279 9.74667 80.0546 9.28 81.8412 9.28C83.2813 9.28 84.5613 9.58667 85.6813 10.2C86.8279 10.7867 87.7213 11.6 88.3613 12.64V2.4H96.2413V32H88.3613V28.88C87.7479 29.92 86.8813 30.7467 85.7613 31.36C84.6413 31.9733 83.3213 32.28 81.8013 32.28C80.0146 32.28 78.3879 31.8133 76.9213 30.88C75.4813 29.9467 74.3346 28.6133 73.4813 26.88C72.6546 25.12 72.2413 23.08 72.2413 20.76ZM88.4013 20.76C88.4013 19.32 88.0013 18.1867 87.2013 17.36C86.4279 16.5333 85.4679 16.12 84.3213 16.12C83.1479 16.12 82.1746 16.5333 81.4013 17.36C80.6279 18.16 80.2413 19.2933 80.2413 20.76C80.2413 22.2 80.6279 23.3467 81.4013 24.2C82.1746 25.0267 83.1479 25.44 84.3213 25.44C85.4679 25.44 86.4279 25.0267 87.2013 24.2C88.0013 23.3733 88.4013 22.2267 88.4013 20.76ZM104.669 7.48C103.282 7.48 102.162 7.10667 101.309 6.36C100.482 5.58667 100.069 4.62667 100.069 3.48C100.069 2.30667 100.482 1.33333 101.309 0.559999C102.162 -0.213335 103.282 -0.600002 104.669 -0.600002C106.029 -0.600002 107.122 -0.213335 107.949 0.559999C108.802 1.33333 109.229 2.30667 109.229 3.48C109.229 4.62667 108.802 5.58667 107.949 6.36C107.122 7.10667 106.029 7.48 104.669 7.48ZM108.549 9.56V32H100.709V9.56H108.549ZM134.453 20.52C134.453 21.1333 134.413 21.7467 134.333 22.36H119.493C119.573 23.5867 119.907 24.5067 120.493 25.12C121.107 25.7067 121.88 26 122.813 26C124.12 26 125.053 25.4133 125.613 24.24H133.973C133.627 25.7867 132.947 27.1733 131.933 28.4C130.947 29.6 129.693 30.5467 128.173 31.24C126.653 31.9333 124.973 32.28 123.133 32.28C120.92 32.28 118.947 31.8133 117.213 30.88C115.507 29.9467 114.16 28.6133 113.173 26.88C112.213 25.1467 111.733 23.1067 111.733 20.76C111.733 18.4133 112.213 16.3867 113.173 14.68C114.133 12.9467 115.467 11.6133 117.173 10.68C118.907 9.74667 120.893 9.28 123.133 9.28C125.347 9.28 127.307 9.73333 129.013 10.64C130.72 11.5467 132.053 12.8533 133.013 14.56C133.973 16.24 134.453 18.2267 134.453 20.52ZM126.453 18.56C126.453 17.6 126.133 16.8533 125.493 16.32C124.853 15.76 124.053 15.48 123.093 15.48C122.133 15.48 121.347 15.7467 120.733 16.28C120.12 16.7867 119.72 17.5467 119.533 18.56H126.453Z" fill="white"/>
<path d="M33.1019 32.28C30.8619 32.28 28.8485 31.8133 27.0619 30.88C25.3019 29.9467 23.9152 28.6133 22.9019 26.88C21.8885 25.1467 21.3819 23.1067 21.3819 20.76C21.3819 18.44 21.8885 16.4133 22.9019 14.68C23.9419 12.9467 25.3419 11.6133 27.1019 10.68C28.8885 9.74667 30.9019 9.28 33.1419 9.28C35.3819 9.28 37.3819 9.74667 39.1419 10.68C40.9285 11.6133 42.3285 12.9467 43.3419 14.68C44.3819 16.4133 44.9019 18.44 44.9019 20.76C44.9019 23.08 44.3819 25.12 43.3419 26.88C42.3285 28.6133 40.9285 29.9467 39.1419 30.88C37.3552 31.8133 35.3419 32.28 33.1019 32.28ZM33.1019 25.48C34.1952 25.48 35.1019 25.08 35.8219 24.28C36.5685 23.4533 36.9419 22.28 36.9419 20.76C36.9419 19.24 36.5685 18.08 35.8219 17.28C35.1019 16.48 34.2085 16.08 33.1419 16.08C32.0752 16.08 31.1819 16.48 30.4619 17.28C29.7419 18.08 29.3819 19.24 29.3819 20.76C29.3819 22.3067 29.7285 23.48 30.4219 24.28C31.1152 25.08 32.0085 25.48 33.1019 25.48ZM58.5316 32.28C56.2916 32.28 54.2782 31.8133 52.4916 30.88C50.7316 29.9467 49.3449 28.6133 48.3316 26.88C47.3182 25.1467 46.8116 23.1067 46.8116 20.76C46.8116 18.44 47.3182 16.4133 48.3316 14.68C49.3716 12.9467 50.7716 11.6133 52.5316 10.68C54.3182 9.74667 56.3316 9.28 58.5716 9.28C60.8116 9.28 62.8116 9.74667 64.5716 10.68C66.3582 11.6133 67.7582 12.9467 68.7716 14.68C69.8116 16.4133 70.3316 18.44 70.3316 20.76C70.3316 23.08 69.8116 25.12 68.7716 26.88C67.7582 28.6133 66.3582 29.9467 64.5716 30.88C62.7849 31.8133 60.7716 32.28 58.5316 32.28ZM58.5316 25.48C59.6249 25.48 60.5316 25.08 61.2516 24.28C61.9982 23.4533 62.3716 22.28 62.3716 20.76C62.3716 19.24 61.9982 18.08 61.2516 17.28C60.5316 16.48 59.6382 16.08 58.5716 16.08C57.5049 16.08 56.6116 16.48 55.8916 17.28C55.1716 18.08 54.8116 19.24 54.8116 20.76C54.8116 22.3067 55.1582 23.48 55.8516 24.28C56.5449 25.08 57.4382 25.48 58.5316 25.48Z" fill="#FE724C"/>
</svg>
