<svg width="225" height="16" viewBox="0 0 225 16" fill="none" xmlns="http://www.w3.org/2000/svg">
<path d="M8.1958 7.62744C8.1958 8.37451 7.9834 8.9458 7.55859 9.34131C7.13867 9.73193 6.54297 9.92725 5.77148 9.92725C5.00488 9.92725 4.38965 9.6709 3.92578 9.1582C3.4668 8.64062 3.2373 7.9375 3.2373 7.04883V6.24316C3.2373 5.38379 3.46924 4.69775 3.93311 4.18506C4.40186 3.66748 5.01465 3.40869 5.77148 3.40869C6.55273 3.40869 7.15332 3.60889 7.57324 4.00928C7.99316 4.40967 8.20312 4.97363 8.20312 5.70117H7.13379C7.13379 5.21777 7.0166 4.87354 6.78223 4.66846C6.55273 4.4585 6.21582 4.35352 5.77148 4.35352C5.3125 4.35352 4.95117 4.52197 4.6875 4.85889C4.42383 5.1958 4.29199 5.66455 4.29199 6.26514V7.09277C4.29199 7.67871 4.42383 8.14014 4.6875 8.47705C4.95117 8.81396 5.3125 8.98242 5.77148 8.98242C6.2207 8.98242 6.55762 8.87988 6.78223 8.6748C7.01172 8.46973 7.12646 8.12061 7.12646 7.62744H8.1958ZM1.50879 6.66064C1.50879 7.50049 1.7041 8.2793 2.09473 8.99707C2.48535 9.70996 3.01514 10.269 3.68408 10.6743C4.35791 11.0796 5.08545 11.2822 5.8667 11.2822C6.64795 11.2822 7.37305 11.0796 8.04199 10.6743C8.71094 10.269 9.24072 9.70996 9.63135 8.99707C10.022 8.2793 10.2173 7.50049 10.2173 6.66064C10.2173 5.83057 10.0244 5.06152 9.63867 4.35352C9.25293 3.64551 8.72314 3.08887 8.04932 2.68359C7.38037 2.27344 6.65283 2.06836 5.8667 2.06836C5.08545 2.06836 4.35791 2.271 3.68408 2.67627C3.01025 3.07666 2.47803 3.6333 2.0874 4.34619C1.70166 5.05908 1.50879 5.83057 1.50879 6.66064ZM0.666504 6.66064C0.666504 5.67432 0.893555 4.75879 1.34766 3.91406C1.80664 3.06934 2.43896 2.40527 3.24463 1.92188C4.05518 1.43359 4.9292 1.18945 5.8667 1.18945C6.8042 1.18945 7.67578 1.43359 8.48145 1.92188C9.28711 2.40527 9.91699 3.06934 10.3711 3.91406C10.8301 4.75879 11.0596 5.67432 11.0596 6.66064C11.0596 7.62256 10.8398 8.52344 10.4004 9.36328C9.96094 10.2031 9.33594 10.8794 8.52539 11.3921C7.71973 11.8999 6.8335 12.1538 5.8667 12.1538C4.90479 12.1538 4.01855 11.9023 3.20801 11.3994C2.40234 10.8916 1.77734 10.2178 1.33301 9.37793C0.888672 8.53809 0.666504 7.63232 0.666504 6.66064ZM23.3862 12H16.3989V11.0259L20.0903 6.92432C20.6372 6.3042 21.0132 5.80127 21.2183 5.41553C21.4282 5.0249 21.5332 4.62207 21.5332 4.20703C21.5332 3.65039 21.3647 3.19385 21.0278 2.8374C20.6909 2.48096 20.2417 2.30273 19.6802 2.30273C19.0063 2.30273 18.4814 2.49561 18.1055 2.88135C17.7344 3.26221 17.5488 3.79443 17.5488 4.47803H16.1938C16.1938 3.49658 16.5088 2.70313 17.1387 2.09766C17.7734 1.49219 18.6206 1.18945 19.6802 1.18945C20.6714 1.18945 21.4551 1.45068 22.0312 1.97314C22.6074 2.49072 22.8955 3.18164 22.8955 4.0459C22.8955 5.0957 22.2266 6.3457 20.8887 7.7959L18.0322 10.894H23.3862V12ZM31.5088 7.45166C31.5088 9.03857 31.2378 10.2178 30.6958 10.9893C30.1538 11.7607 29.3066 12.1465 28.1543 12.1465C27.0166 12.1465 26.1743 11.7705 25.6274 11.0186C25.0806 10.2617 24.7974 9.13379 24.7778 7.63477V5.82568C24.7778 4.2583 25.0488 3.09375 25.5908 2.33203C26.1328 1.57031 26.9824 1.18945 28.1396 1.18945C29.2871 1.18945 30.1318 1.55811 30.6738 2.29541C31.2158 3.02783 31.4941 4.16064 31.5088 5.69385V7.45166ZM30.1538 5.59863C30.1538 4.45117 29.9927 3.61621 29.6704 3.09375C29.3481 2.56641 28.8379 2.30273 28.1396 2.30273C27.4463 2.30273 26.9409 2.56396 26.6235 3.08643C26.3062 3.60889 26.1426 4.41211 26.1328 5.49609V7.66406C26.1328 8.81641 26.2988 9.66846 26.6309 10.2202C26.9678 10.7671 27.4756 11.0405 28.1543 11.0405C28.8232 11.0405 29.3188 10.7817 29.6411 10.2642C29.9683 9.74658 30.1392 8.93115 30.1538 7.81787V5.59863ZM40.2319 12H33.2446V11.0259L36.936 6.92432C37.4829 6.3042 37.8589 5.80127 38.064 5.41553C38.2739 5.0249 38.3789 4.62207 38.3789 4.20703C38.3789 3.65039 38.2104 3.19385 37.8735 2.8374C37.5366 2.48096 37.0874 2.30273 36.5259 2.30273C35.8521 2.30273 35.3271 2.49561 34.9512 2.88135C34.5801 3.26221 34.3945 3.79443 34.3945 4.47803H33.0396C33.0396 3.49658 33.3545 2.70313 33.9844 2.09766C34.6191 1.49219 35.4663 1.18945 36.5259 1.18945C37.5171 1.18945 38.3008 1.45068 38.877 1.97314C39.4531 2.49072 39.7412 3.18164 39.7412 4.0459C39.7412 5.0957 39.0723 6.3457 37.7344 7.7959L34.8779 10.894H40.2319V12ZM46.1206 12H44.7583V2.96924L42.0264 3.97266V2.74219L45.9082 1.28467H46.1206V12ZM60.0439 7.29053H55.5688V12H54.1626V1.33594H60.769V2.49316H55.5688V6.14062H60.0439V7.29053ZM61.7212 7.96436C61.7212 7.18799 61.8726 6.48975 62.1753 5.86963C62.4829 5.24951 62.9077 4.771 63.4497 4.43408C63.9966 4.09717 64.6191 3.92871 65.3174 3.92871C66.3965 3.92871 67.2681 4.30225 67.9321 5.04932C68.6011 5.79639 68.9355 6.79004 68.9355 8.03027V8.12549C68.9355 8.89697 68.7866 9.59033 68.4888 10.2056C68.1958 10.8159 67.7734 11.292 67.2217 11.6338C66.6748 11.9756 66.0449 12.1465 65.332 12.1465C64.2578 12.1465 63.3862 11.7729 62.7173 11.0259C62.0532 10.2788 61.7212 9.29004 61.7212 8.05957V7.96436ZM63.0835 8.12549C63.0835 9.00439 63.2861 9.70996 63.6914 10.2422C64.1016 10.7744 64.6484 11.0405 65.332 11.0405C66.0205 11.0405 66.5674 10.772 66.9727 10.2349C67.3779 9.69287 67.5806 8.93604 67.5806 7.96436C67.5806 7.09521 67.373 6.39209 66.958 5.85498C66.5479 5.31299 66.001 5.04199 65.3174 5.04199C64.6484 5.04199 64.1089 5.30811 63.6987 5.84033C63.2886 6.37256 63.0835 7.13428 63.0835 8.12549ZM70.2759 7.96436C70.2759 7.18799 70.4272 6.48975 70.73 5.86963C71.0376 5.24951 71.4624 4.771 72.0044 4.43408C72.5513 4.09717 73.1738 3.92871 73.8721 3.92871C74.9512 3.92871 75.8228 4.30225 76.4868 5.04932C77.1558 5.79639 77.4902 6.79004 77.4902 8.03027V8.12549C77.4902 8.89697 77.3413 9.59033 77.0435 10.2056C76.7505 10.8159 76.3281 11.292 75.7764 11.6338C75.2295 11.9756 74.5996 12.1465 73.8867 12.1465C72.8125 12.1465 71.9409 11.7729 71.272 11.0259C70.6079 10.2788 70.2759 9.29004 70.2759 8.05957V7.96436ZM71.6382 8.12549C71.6382 9.00439 71.8408 9.70996 72.2461 10.2422C72.6562 10.7744 73.2031 11.0405 73.8867 11.0405C74.5752 11.0405 75.1221 10.772 75.5273 10.2349C75.9326 9.69287 76.1353 8.93604 76.1353 7.96436C76.1353 7.09521 75.9277 6.39209 75.5127 5.85498C75.1025 5.31299 74.5557 5.04199 73.8721 5.04199C73.2031 5.04199 72.6636 5.30811 72.2534 5.84033C71.8433 6.37256 71.6382 7.13428 71.6382 8.12549ZM78.8599 7.97168C78.8599 6.75586 79.1479 5.7793 79.7241 5.04199C80.3003 4.2998 81.0547 3.92871 81.9873 3.92871C82.915 3.92871 83.6499 4.24609 84.1919 4.88086V0.75H85.5469V12H84.3018L84.2358 11.1504C83.6938 11.8145 82.9395 12.1465 81.9727 12.1465C81.0547 12.1465 80.3052 11.7705 79.7241 11.0186C79.1479 10.2666 78.8599 9.28516 78.8599 8.07422V7.97168ZM80.2148 8.12549C80.2148 9.02393 80.4004 9.72705 80.7715 10.2349C81.1426 10.7427 81.6553 10.9966 82.3096 10.9966C83.1689 10.9966 83.7964 10.6108 84.1919 9.83936V6.19922C83.7866 5.45215 83.1641 5.07861 82.3242 5.07861C81.6602 5.07861 81.1426 5.33496 80.7715 5.84766C80.4004 6.36035 80.2148 7.11963 80.2148 8.12549ZM89.1284 12H87.7734V4.0752H89.1284V12ZM87.6636 1.97314C87.6636 1.75342 87.7295 1.56787 87.8613 1.4165C87.998 1.26514 88.1982 1.18945 88.4619 1.18945C88.7256 1.18945 88.9258 1.26514 89.0625 1.4165C89.1992 1.56787 89.2676 1.75342 89.2676 1.97314C89.2676 2.19287 89.1992 2.37598 89.0625 2.52246C88.9258 2.66895 88.7256 2.74219 88.4619 2.74219C88.1982 2.74219 87.998 2.66895 87.8613 2.52246C87.7295 2.37598 87.6636 2.19287 87.6636 1.97314ZM94.5923 12.1465C93.5181 12.1465 92.644 11.7949 91.9702 11.0918C91.2964 10.3838 90.9595 9.43896 90.9595 8.25732V8.0083C90.9595 7.22217 91.1084 6.52148 91.4062 5.90625C91.709 5.28613 92.1289 4.80273 92.666 4.45605C93.208 4.10449 93.7939 3.92871 94.4238 3.92871C95.4541 3.92871 96.2549 4.26807 96.8262 4.94678C97.3975 5.62549 97.6831 6.59717 97.6831 7.86182V8.42578H92.3145C92.334 9.20703 92.561 9.83936 92.9956 10.3228C93.4351 10.8013 93.9917 11.0405 94.6655 11.0405C95.144 11.0405 95.5493 10.9429 95.8813 10.7476C96.2134 10.5522 96.5039 10.2935 96.7529 9.97119L97.5806 10.6157C96.9165 11.6362 95.9204 12.1465 94.5923 12.1465ZM94.4238 5.04199C93.877 5.04199 93.418 5.24219 93.0469 5.64258C92.6758 6.03809 92.4463 6.59473 92.3584 7.3125H96.3281V7.20996C96.2891 6.52148 96.1035 5.98926 95.7715 5.61328C95.4395 5.23242 94.9902 5.04199 94.4238 5.04199ZM99.2871 11.2896C99.2871 11.0552 99.3555 10.8599 99.4922 10.7036C99.6338 10.5474 99.8438 10.4692 100.122 10.4692C100.4 10.4692 100.61 10.5474 100.752 10.7036C100.898 10.8599 100.972 11.0552 100.972 11.2896C100.972 11.5142 100.898 11.7021 100.752 11.8535C100.61 12.0049 100.4 12.0806 100.122 12.0806C99.8438 12.0806 99.6338 12.0049 99.4922 11.8535C99.3555 11.7021 99.2871 11.5142 99.2871 11.2896ZM113.035 9.2168H108.567L107.563 12H106.113L110.186 1.33594H111.416L115.496 12H114.053L113.035 9.2168ZM108.992 8.05957H112.617L110.801 3.07178L108.992 8.05957ZM118.191 12H116.836V0.75H118.191V12ZM121.838 12H120.483V0.75H121.838V12ZM131.565 5.29102C131.36 5.25684 131.138 5.23975 130.898 5.23975C130.01 5.23975 129.407 5.61816 129.089 6.375V12H127.734V4.0752H129.053L129.075 4.99072C129.519 4.28271 130.149 3.92871 130.964 3.92871C131.228 3.92871 131.428 3.96289 131.565 4.03125V5.29102ZM134.29 12H132.935V4.0752H134.29V12ZM132.825 1.97314C132.825 1.75342 132.891 1.56787 133.022 1.4165C133.159 1.26514 133.359 1.18945 133.623 1.18945C133.887 1.18945 134.087 1.26514 134.224 1.4165C134.36 1.56787 134.429 1.75342 134.429 1.97314C134.429 2.19287 134.36 2.37598 134.224 2.52246C134.087 2.66895 133.887 2.74219 133.623 2.74219C133.359 2.74219 133.159 2.66895 133.022 2.52246C132.891 2.37598 132.825 2.19287 132.825 1.97314ZM136.143 7.97168C136.143 6.73633 136.428 5.75488 137 5.02734C137.571 4.29492 138.328 3.92871 139.27 3.92871C140.237 3.92871 140.991 4.27051 141.533 4.9541L141.599 4.0752H142.837V11.8096C142.837 12.835 142.532 13.6431 141.921 14.2339C141.316 14.8247 140.5 15.1201 139.475 15.1201C138.904 15.1201 138.345 14.998 137.798 14.7539C137.251 14.5098 136.833 14.1753 136.545 13.7505L137.249 12.9375C137.83 13.6553 138.54 14.0142 139.38 14.0142C140.039 14.0142 140.552 13.8286 140.918 13.4575C141.289 13.0864 141.475 12.564 141.475 11.8901V11.209C140.933 11.834 140.193 12.1465 139.255 12.1465C138.328 12.1465 137.576 11.7729 137 11.0259C136.428 10.2788 136.143 9.26074 136.143 7.97168ZM137.505 8.12549C137.505 9.01904 137.688 9.72217 138.054 10.2349C138.42 10.7427 138.933 10.9966 139.592 10.9966C140.447 10.9966 141.074 10.6084 141.475 9.83203V6.21387C141.06 5.45703 140.437 5.07861 139.607 5.07861C138.948 5.07861 138.433 5.33496 138.062 5.84766C137.69 6.36035 137.505 7.11963 137.505 8.12549ZM146.243 5.03467C146.843 4.29736 147.625 3.92871 148.586 3.92871C150.261 3.92871 151.106 4.87354 151.121 6.76318V12H149.766V6.75586C149.761 6.18457 149.629 5.76221 149.37 5.48877C149.116 5.21533 148.718 5.07861 148.176 5.07861C147.737 5.07861 147.351 5.1958 147.019 5.43018C146.687 5.66455 146.428 5.97217 146.243 6.35303V12H144.888V0.75H146.243V5.03467ZM154.988 2.15625V4.0752H156.467V5.12256H154.988V10.0371C154.988 10.3545 155.054 10.5938 155.186 10.7549C155.317 10.9111 155.542 10.9893 155.859 10.9893C156.016 10.9893 156.23 10.96 156.504 10.9014V12C156.147 12.0977 155.801 12.1465 155.464 12.1465C154.858 12.1465 154.402 11.9634 154.094 11.5972C153.787 11.231 153.633 10.7109 153.633 10.0371V5.12256H152.19V4.0752H153.633V2.15625H154.988ZM162.671 9.89795C162.671 9.53174 162.532 9.24854 162.253 9.04834C161.98 8.84326 161.499 8.66748 160.811 8.521C160.127 8.37451 159.583 8.19873 159.177 7.99365C158.777 7.78857 158.479 7.54443 158.284 7.26123C158.093 6.97803 157.998 6.64111 157.998 6.25049C157.998 5.60107 158.271 5.05176 158.818 4.60254C159.37 4.15332 160.073 3.92871 160.928 3.92871C161.826 3.92871 162.554 4.16064 163.11 4.62451C163.672 5.08838 163.953 5.68164 163.953 6.4043H162.59C162.59 6.0332 162.432 5.71338 162.114 5.44482C161.802 5.17627 161.406 5.04199 160.928 5.04199C160.435 5.04199 160.049 5.14941 159.771 5.36426C159.492 5.5791 159.353 5.85986 159.353 6.20654C159.353 6.53369 159.482 6.78027 159.741 6.94629C160 7.1123 160.466 7.271 161.14 7.42236C161.819 7.57373 162.368 7.75439 162.788 7.96436C163.208 8.17432 163.518 8.42822 163.718 8.72607C163.923 9.01904 164.026 9.37793 164.026 9.80273C164.026 10.5107 163.743 11.0796 163.176 11.5093C162.61 11.9341 161.875 12.1465 160.972 12.1465C160.337 12.1465 159.775 12.0342 159.287 11.8096C158.799 11.585 158.416 11.2725 158.137 10.8721C157.864 10.4668 157.727 10.0298 157.727 9.56104H159.082C159.106 10.0151 159.287 10.3765 159.624 10.645C159.966 10.9087 160.415 11.0405 160.972 11.0405C161.484 11.0405 161.895 10.938 162.202 10.7329C162.515 10.5229 162.671 10.2446 162.671 9.89795ZM173.342 5.29102C173.137 5.25684 172.915 5.23975 172.676 5.23975C171.787 5.23975 171.184 5.61816 170.867 6.375V12H169.512V4.0752H170.83L170.852 4.99072C171.296 4.28271 171.926 3.92871 172.742 3.92871C173.005 3.92871 173.206 3.96289 173.342 4.03125V5.29102ZM177.737 12.1465C176.663 12.1465 175.789 11.7949 175.115 11.0918C174.441 10.3838 174.104 9.43896 174.104 8.25732V8.0083C174.104 7.22217 174.253 6.52148 174.551 5.90625C174.854 5.28613 175.273 4.80273 175.811 4.45605C176.353 4.10449 176.938 3.92871 177.568 3.92871C178.599 3.92871 179.399 4.26807 179.971 4.94678C180.542 5.62549 180.828 6.59717 180.828 7.86182V8.42578H175.459C175.479 9.20703 175.706 9.83936 176.14 10.3228C176.58 10.8013 177.136 11.0405 177.81 11.0405C178.289 11.0405 178.694 10.9429 179.026 10.7476C179.358 10.5522 179.648 10.2935 179.897 9.97119L180.725 10.6157C180.061 11.6362 179.065 12.1465 177.737 12.1465ZM177.568 5.04199C177.021 5.04199 176.562 5.24219 176.191 5.64258C175.82 6.03809 175.591 6.59473 175.503 7.3125H179.473V7.20996C179.434 6.52148 179.248 5.98926 178.916 5.61328C178.584 5.23242 178.135 5.04199 177.568 5.04199ZM187.017 9.89795C187.017 9.53174 186.877 9.24854 186.599 9.04834C186.326 8.84326 185.845 8.66748 185.156 8.521C184.473 8.37451 183.928 8.19873 183.523 7.99365C183.123 7.78857 182.825 7.54443 182.629 7.26123C182.439 6.97803 182.344 6.64111 182.344 6.25049C182.344 5.60107 182.617 5.05176 183.164 4.60254C183.716 4.15332 184.419 3.92871 185.273 3.92871C186.172 3.92871 186.899 4.16064 187.456 4.62451C188.018 5.08838 188.298 5.68164 188.298 6.4043H186.936C186.936 6.0332 186.777 5.71338 186.46 5.44482C186.147 5.17627 185.752 5.04199 185.273 5.04199C184.78 5.04199 184.395 5.14941 184.116 5.36426C183.838 5.5791 183.699 5.85986 183.699 6.20654C183.699 6.53369 183.828 6.78027 184.087 6.94629C184.346 7.1123 184.812 7.271 185.486 7.42236C186.165 7.57373 186.714 7.75439 187.134 7.96436C187.554 8.17432 187.864 8.42822 188.064 8.72607C188.269 9.01904 188.372 9.37793 188.372 9.80273C188.372 10.5107 188.088 11.0796 187.522 11.5093C186.956 11.9341 186.221 12.1465 185.317 12.1465C184.683 12.1465 184.121 12.0342 183.633 11.8096C183.145 11.585 182.761 11.2725 182.483 10.8721C182.209 10.4668 182.073 10.0298 182.073 9.56104H183.428C183.452 10.0151 183.633 10.3765 183.97 10.645C184.312 10.9087 184.761 11.0405 185.317 11.0405C185.83 11.0405 186.24 10.938 186.548 10.7329C186.86 10.5229 187.017 10.2446 187.017 9.89795ZM193.425 12.1465C192.351 12.1465 191.477 11.7949 190.803 11.0918C190.129 10.3838 189.792 9.43896 189.792 8.25732V8.0083C189.792 7.22217 189.941 6.52148 190.239 5.90625C190.542 5.28613 190.962 4.80273 191.499 4.45605C192.041 4.10449 192.627 3.92871 193.257 3.92871C194.287 3.92871 195.088 4.26807 195.659 4.94678C196.23 5.62549 196.516 6.59717 196.516 7.86182V8.42578H191.147C191.167 9.20703 191.394 9.83936 191.829 10.3228C192.268 10.8013 192.825 11.0405 193.499 11.0405C193.977 11.0405 194.382 10.9429 194.714 10.7476C195.046 10.5522 195.337 10.2935 195.586 9.97119L196.414 10.6157C195.75 11.6362 194.753 12.1465 193.425 12.1465ZM193.257 5.04199C192.71 5.04199 192.251 5.24219 191.88 5.64258C191.509 6.03809 191.279 6.59473 191.191 7.3125H195.161V7.20996C195.122 6.52148 194.937 5.98926 194.604 5.61328C194.272 5.23242 193.823 5.04199 193.257 5.04199ZM201.921 5.29102C201.716 5.25684 201.494 5.23975 201.255 5.23975C200.366 5.23975 199.763 5.61816 199.446 6.375V12H198.091V4.0752H199.409L199.431 4.99072C199.875 4.28271 200.505 3.92871 201.321 3.92871C201.584 3.92871 201.785 3.96289 201.921 4.03125V5.29102ZM205.92 10.1616L207.883 4.0752H209.268L206.426 12H205.393L202.522 4.0752H203.906L205.92 10.1616ZM213.757 12.1465C212.683 12.1465 211.809 11.7949 211.135 11.0918C210.461 10.3838 210.125 9.43896 210.125 8.25732V8.0083C210.125 7.22217 210.273 6.52148 210.571 5.90625C210.874 5.28613 211.294 4.80273 211.831 4.45605C212.373 4.10449 212.959 3.92871 213.589 3.92871C214.619 3.92871 215.42 4.26807 215.991 4.94678C216.562 5.62549 216.848 6.59717 216.848 7.86182V8.42578H211.479C211.499 9.20703 211.726 9.83936 212.161 10.3228C212.6 10.8013 213.157 11.0405 213.831 11.0405C214.309 11.0405 214.714 10.9429 215.046 10.7476C215.378 10.5522 215.669 10.2935 215.918 9.97119L216.746 10.6157C216.082 11.6362 215.085 12.1465 213.757 12.1465ZM213.589 5.04199C213.042 5.04199 212.583 5.24219 212.212 5.64258C211.841 6.03809 211.611 6.59473 211.523 7.3125H215.493V7.20996C215.454 6.52148 215.269 5.98926 214.937 5.61328C214.604 5.23242 214.155 5.04199 213.589 5.04199ZM218.093 7.97168C218.093 6.75586 218.381 5.7793 218.958 5.04199C219.534 4.2998 220.288 3.92871 221.221 3.92871C222.148 3.92871 222.883 4.24609 223.425 4.88086V0.75H224.78V12H223.535L223.469 11.1504C222.927 11.8145 222.173 12.1465 221.206 12.1465C220.288 12.1465 219.539 11.7705 218.958 11.0186C218.381 10.2666 218.093 9.28516 218.093 8.07422V7.97168ZM219.448 8.12549C219.448 9.02393 219.634 9.72705 220.005 10.2349C220.376 10.7427 220.889 10.9966 221.543 10.9966C222.402 10.9966 223.03 10.6108 223.425 9.83936V6.19922C223.02 5.45215 222.397 5.07861 221.558 5.07861C220.894 5.07861 220.376 5.33496 220.005 5.84766C219.634 6.36035 219.448 7.11963 219.448 8.12549Z" fill="#D9DBE1"/>
</svg>
